# xmcd
#
# Track frame offsets: 
#        150
#        11615
#        26267
#        38500
#        57820
#        79890
#        93117
#        107587
#        121175
#        134032
#        145640
#        155355
#        167098
#        178374
#        192353
#        205954
#        218648
#        231166
#        243049
#        256436
#        269705
#        280966
#        293769
#
# Disc length: 4101 seconds
#
# Revision: 2
# Processed by: cddbd v1.5.2PL0 Copyright (c) Steve Scherf et al.
# Submitted via: ExactAudioCopyFreeDBPlugin 1.0
#
DISCID=44100317
DTITLE=King Curtis - King Curtis:  Seven Classic Albums
DYEAR=2012
DGENRE=Rhythm and Blues
TTITLE0=Midnight Ramble
TTITLE1=Linda
TTITLE2=The Shake
TTITLE3=Jaywalk
TTITLE4=Lil Brother
TTITLE5=Peter Gunn
TTITLE6=The Groove
TTITLE7=Snake Eyes
TTITLE8=Cuban Twilight
TTITLE9=Birth of the Blues
TTITLE10=Chili
TTITLE11=Close Your Eyes
TTITLE12=Unchained Melody
TTITLE13=Off Shore
TTITLE14=The Nearness of You
TTITLE15=Misty
TTITLE16=Stranger
TTITLE17=When I Fall in Love
TTITLE18=It Ain't Necessarily So
TTITLE19=Our Love is Here to Stay
TTITLE20=My Love is Your Love
TTITLE21=Sweet and Lovely
TTITLE22=Azure
EXTD=
EXTT0=
EXTT1=
EXTT2=
EXTT3=
EXTT4=
EXTT5=
EXTT6=
EXTT7=
EXTT8=
EXTT9=
EXTT10=
EXTT11=
EXTT12=
EXTT13=
EXTT14=
EXTT15=
EXTT16=
EXTT17=
EXTT18=
EXTT19=
EXTT20=
EXTT21=
EXTT22=
PLAYORDER=
